<?xml version="1.0" encoding="UTF-8"?>
<svg
  xmlns="http://www.w3.org/2000/svg"
  viewBox="0 0 24 24"
  width="24"
  height="24">

  <path
    fill="#1C274C"
    d="M22 12C22 17.5228 17.5228 22 12 22C6.47715 22 2 17.5228 2 12C2 6.47715 6.47715 2 12 2C17.5228 2 22 6.47715 22 12ZM13.4881 6.44591C13.8882 6.55311 14.1256 6.96437 14.0184 7.36447L11.4302 17.0237C11.323 17.4238 10.9117 17.6613 10.5116 17.5541C10.1115 17.4468 9.8741 17.0356 9.98131 16.6355L12.5695 6.97624C12.6767 6.57614 13.088 6.3387 13.4881 6.44591ZM14.9697 8.46967C15.2626 8.17678 15.7374 8.17678 16.0303 8.46967L16.2387 8.67801C17.5 9.93934 18.4216 10.8238 18.4216 12C18.4216 13.1762 17.5 14.0607 16.2387 15.322L16.0303 15.5303C15.7374 15.8232 15.2626 15.8232 14.9697 15.5303C14.6768 15.2374 14.6768 14.7626 14.9697 14.4697L15.1412 14.2981C16.3 13.1393 16.9216 12.6441 16.9216 12C16.9216 11.3559 16.3 10.8607 15.1412 9.70191L14.9697 9.53033C14.6768 9.23744 14.6768 8.76257 14.9697 8.46967ZM7.96986 8.46967C8.26275 8.17678 8.73762 8.17678 9.03052 8.46967C9.32341 8.76257 9.32341 9.23744 9.03052 9.53033L8.85894 9.70191C7.70016 10.8607 7.07861 11.3559 7.07861 12C7.07861 12.6441 7.70016 13.1393 8.85894 14.2981L9.03052 14.4697C9.32341 14.7626 9.32341 15.2374 9.03052 15.5303C8.73762 15.8232 8.26275 15.8232 7.96986 15.5303L7.76151 15.322C6.5 14.0607 5.57861 13.1762 5.57861 12C5.57861 10.8238 6.5 9.93934 7.76151 8.67801L7.96986 8.46967Z"/>
</svg>
